<svg width="188" height="72" viewBox="0 0 188 72" fill="none" xmlns="http://www.w3.org/2000/svg">
<path d="M80.9896 21.3576C80.9896 13.2338 87.1045 8.05823 93.8699 8.05823C100.896 8.05823 104.473 12.3822 105.514 16.5095L100.896 18.0164C100.31 15.5923 98.2934 12.8408 93.935 12.8408C90.1619 12.8408 86.1287 15.5923 86.1287 21.3576C86.1287 26.7953 89.9017 29.8089 94 29.8089C98.2934 29.8089 100.44 26.9918 101.091 24.5678L105.709 25.9436C104.734 29.8744 101.091 34.5914 94 34.5914C86.8443 34.657 80.9896 29.4813 80.9896 21.3576Z" fill="#FAFBFB"/>
<path d="M118.329 24.2402H115.727V34.0673H110.783V8.58234H120.671C125.615 8.58234 128.738 11.9891 128.738 16.444C128.738 19.9818 126.656 22.7334 123.338 23.6506L128.738 34.0673H123.208L118.329 24.2402ZM119.761 19.9818C122.233 19.9818 123.729 18.5405 123.729 16.444C123.729 14.2821 122.233 12.9063 119.761 12.9063H115.727V19.9818H119.761Z" fill="#FAFBFB"/>
<path d="M138.3 34.0673V8.58234H154.173V13.2338H143.244V19.0646H153.132V23.5195H143.244V29.4158H154.173V34.0673H138.3Z" fill="#FAFBFB"/>
<path d="M177.722 28.2366H167.444L165.362 34.0673H160.158L169.851 8.58234H175.575L185.203 34.0673H179.869L177.722 28.2366ZM169.07 23.7161H176.096L172.583 14.0855L169.07 23.7161Z" fill="#FAFBFB"/>
<path d="M91.7232 47.3012C91.528 46.1219 90.5522 44.353 87.9502 44.353C85.9986 44.353 84.6976 45.5978 84.6976 47.0391C84.6976 48.2184 85.4131 49.1356 86.9744 49.3976L89.9017 49.9873C93.6747 50.7079 95.6913 53.1974 95.6913 56.1456C95.6913 59.3558 93.0242 62.6315 88.1453 62.6315C82.6159 62.6315 80.209 59.0282 79.8837 56.0801L83.6567 55.0973C83.8519 57.1938 85.283 59.0282 88.2104 59.0282C90.3571 59.0282 91.5931 57.9145 91.5931 56.4731C91.5931 55.2284 90.6823 54.3112 89.056 53.9836L86.1287 53.394C82.8111 52.7388 80.6643 50.5769 80.6643 47.3667C80.6643 43.6324 83.982 40.8153 87.9502 40.8153C93.0242 40.8153 94.9758 43.8944 95.4311 46.2529L91.7232 47.3012Z" fill="#FAFBFB"/>
<path d="M107.791 45.0737V62.1729H103.693V45.0737H97.1225V41.2084H114.361V45.0737H107.791Z" fill="#FAFBFB"/>
<path d="M117.093 54.7698V41.2084H121.127V54.4422C121.127 57.1938 122.623 58.6351 125.095 58.6351C127.567 58.6351 129.063 57.1938 129.063 54.4422V41.2084H133.096V54.7698C133.096 59.9454 129.518 62.697 125.095 62.697C120.671 62.6315 117.093 59.8799 117.093 54.7698Z" fill="#FAFBFB"/>
<path d="M137.65 62.1729V41.2084H145.131C151.051 41.2084 155.409 45.0737 155.409 51.6906C155.409 58.3076 151.051 62.1729 145.066 62.1729H137.65ZM144.936 58.3731C148.318 58.3731 151.181 56.2111 151.181 51.6906C151.181 47.1046 148.383 44.9427 144.936 44.9427H141.683V58.3731H144.936Z" fill="#FAFBFB"/>
<path d="M158.922 62.1729V41.2084H163.02V62.1729H158.922Z" fill="#FAFBFB"/>
<path d="M177.266 40.7498C182.926 40.7498 188 44.9427 188 51.6906C188 58.4386 182.926 62.6315 177.266 62.6315C171.607 62.6315 166.598 58.4386 166.598 51.6906C166.598 44.9427 171.672 40.7498 177.266 40.7498ZM177.266 58.6351C180.519 58.6351 183.772 56.4076 183.772 51.6251C183.772 46.9081 180.454 44.6151 177.266 44.6151C174.079 44.6151 170.761 46.8426 170.761 51.6251C170.761 56.4076 174.079 58.6351 177.266 58.6351Z" fill="#FAFBFB"/>
<path d="M41.3079 23.5196L28.2975 0.786163C16.1979 3.34121 6.37505 12.0546 2.21173 23.5196H41.3079Z" fill="#FAFBFB"/>
<path d="M49.2443 34.5914L62.2547 11.8581C55.6845 4.58599 46.2519 0 35.7135 0C33.6319 0 31.6153 0.196542 29.6637 0.524113L49.2443 34.5914Z" fill="#FAFBFB"/>
<path d="M69.7356 47.0391C70.8415 43.5669 71.492 39.8326 71.492 35.9673C71.492 27.1884 68.3695 19.1956 63.2304 12.9718L43.7148 47.0391H69.7356Z" fill="#FAFBFB"/>
<path d="M22.2477 37.343L9.23737 60.0764C15.8076 67.3485 25.2401 71.9345 35.7785 71.9345C37.8602 71.9345 39.8768 71.7379 41.8284 71.4104L22.2477 37.343Z" fill="#FAFBFB"/>
<path d="M27.7772 24.8954H1.7564C0.585467 28.3676 0 32.1019 0 35.9672C0 44.7461 3.12249 52.7388 8.26159 58.9627L27.7772 24.8954Z" fill="#FAFBFB"/>
<path d="M30.1841 48.4149L43.1945 71.1483C55.2291 68.5932 65.0519 59.8799 69.2803 48.4149H30.1841Z" fill="#FAFBFB"/>
</svg>
