<svg width="32" height="32" viewBox="0 0 32 32" fill="none" xmlns="http://www.w3.org/2000/svg">
<path fill-rule="evenodd" clip-rule="evenodd" d="M16.0187 19.0877C17.7177 19.0877 19.0957 17.7137 19.0957 16.0177C19.0957 14.3227 17.7177 12.9487 16.0187 12.9487C14.3197 12.9487 12.9417 14.3227 12.9417 16.0177C12.9417 17.7137 14.3197 19.0877 16.0187 19.0877" fill="white"/>
<path fill-rule="evenodd" clip-rule="evenodd" d="M19.5618 12.874H21.7248C21.9718 12.874 22.1728 12.674 22.1728 12.428V10.269C22.1728 10.023 21.9718 9.823 21.7248 9.823H19.5618C19.3148 9.823 19.1138 10.023 19.1138 10.269V12.428C19.1138 12.674 19.3148 12.874 19.5618 12.874" fill="white"/>
<path fill-rule="evenodd" clip-rule="evenodd" d="M24 22.102C24 23.15 23.149 24 22.098 24H9.902C8.852 24 8 23.15 8 22.102V9.897C8 8.849 8.852 8 9.902 8H22.098C23.149 8 24 8.849 24 9.897V22.102ZM16 0C7.163 0 0 7.163 0 16C0 24.836 7.163 32 16 32C24.837 32 32 24.836 32 16C32 7.163 24.837 0 16 0V0Z" fill="white"/>
<path fill-rule="evenodd" clip-rule="evenodd" d="M20.8858 16.0181C20.8858 18.6951 18.7028 20.8741 16.0188 20.8741C13.3348 20.8741 11.1518 18.6951 11.1518 16.0181C11.1518 15.5741 11.2118 15.1431 11.3248 14.7341H9.82776V21.6921C9.82776 21.9391 10.0278 22.1391 10.2748 22.1391H21.7618C22.0098 22.1391 22.2098 21.9391 22.2098 21.6921V14.7341H20.7128C20.8258 15.1431 20.8858 15.5741 20.8858 16.0181" fill="white"/>
</svg>
